<svg version="1.0" xmlns="http://www.w3.org/2000/svg" width="320.000000pt" class="fab custom-icons" height="310.000000pt" viewBox="0 0 320.000000 310.000000" preserveAspectRatio="xMidYMid meet">
                                    <g transform="translate(0.000000,310.000000) scale(0.100000,-0.100000)" fill="#000000" stroke="none">
                                        <path d="M803 2942 l-272 -157 -1 -303 0 -303 -37 -22 c-20 -12 -138 -81 -262
						   -153 l-226 -130 -3 -321 -2 -320 265 -153 265 -153 2 -304 3 -304 265 -155
						   c146 -85 272 -152 281 -150 9 2 129 69 267 149 l252 146 252 -146 c138 -80
						   258 -147 267 -149 9 -2 135 65 281 150 l265 155 3 304 2 304 265 153 265 153
						   -2 320 -3 321 -226 130 c-124 72 -242 141 -262 153 l-37 22 0 303 -1 303 -270
						   155 c-149 85 -275 154 -281 152 -5 -1 -122 -68 -260 -147 -137 -80 -253 -145
						   -258 -145 -5 0 -107 57 -227 126 -120 70 -236 137 -258 149 l-40 23 -272 -156z
						   m252 -522 c2 0 117 65 255 145 138 80 255 145 260 145 6 0 10 -98 10 -265 l0
						   -265 -26 -17 c-15 -9 -133 -78 -263 -154 l-236 -136 -3 -305 -2 -304 -228
						   -132 c-126 -73 -232 -132 -235 -132 -4 0 -7 133 -7 296 0 251 -2 295 -14 291
						   -8 -3 -124 -69 -258 -146 l-243 -141 -3 262 c-1 145 0 268 2 273 2 6 119 78
						   260 159 l256 148 2 305 3 304 230 134 230 133 3 -299 c1 -164 4 -299 7 -299z
						   m394 403 c77 -45 91 -57 80 -68 -8 -7 -95 -59 -194 -115 -99 -57 -190 -110
						   -202 -118 l-23 -14 0 255 0 256 123 -71 c67 -39 164 -95 216 -125z m649 -182
						   l-3 -130 -212 122 c-116 67 -212 126 -213 131 -1 4 95 64 212 131 l213 124 3
						   -124 c1 -68 1 -182 0 -254z m272 254 c113 -65 217 -127 233 -137 l28 -20 -1
						   -295 c-1 -163 2 -299 7 -304 4 -4 118 -71 253 -149 135 -78 248 -145 253 -149
						   4 -4 6 -127 5 -274 l-3 -267 -252 145 c-139 80 -256 145 -260 145 -4 0 -7
						   -133 -5 -296 2 -245 0 -295 -11 -292 -7 2 -116 61 -240 132 l-227 130 -2 305
						   -3 304 -237 137 c-131 76 -249 145 -263 154 l-25 16 0 265 c0 161 4 265 9 265
						   6 0 123 -65 261 -145 138 -80 253 -145 255 -145 3 0 5 135 5 301 0 165 3 298
						   8 296 4 -2 99 -57 212 -122z m-1033 -1221 c120 -70 224 -131 231 -136 9 -8 12
						   -75 12 -275 0 -248 -1 -265 -17 -258 -10 3 -116 63 -235 132 l-218 125 0 269
						   c0 148 2 269 4 269 2 0 102 -57 223 -126z m763 -142 l0 -267 -229 -133 c-126
						   -72 -231 -132 -235 -132 -3 0 -6 120 -6 268 l0 267 228 132 c125 73 230 133
						   235 133 4 0 7 -120 7 -268z m-1300 -757 c113 -65 209 -121 213 -125 7 -6 -295
						   -188 -410 -249 l-23 -12 0 256 c0 141 3 254 8 252 4 -2 99 -57 212 -122z
						   m1830 -135 c0 -137 -3 -250 -7 -250 -14 0 -432 246 -430 253 3 11 408 246 425
						   247 9 0 12 -56 12 -250z"></path>
                                    </g>
                                </svg>