<?xml version="1.0" encoding="utf-8"?>
<!-- Svg Vector Icons : http://www.onlinewebfonts.com/icon -->
<!DOCTYPE svg PUBLIC "-//W3C//DTD SVG 1.1//EN" "http://www.w3.org/Graphics/SVG/1.1/DTD/svg11.dtd">
<svg version="1.1" xmlns="http://www.w3.org/2000/svg" xmlns:xlink="http://www.w3.org/1999/xlink" x="0px" y="0px" viewBox="0 0 1000 1000" enable-background="new 0 0 1000 1000" xml:space="preserve">
<metadata> Svg Vector Icons : http://www.onlinewebfonts.com/icon </metadata>
<g><g transform="translate(0.000000,250.000000) scale(0.100000,-0.100000)"><path d="M1486.5,2367.7C827.8,2257.3,248,1665.6,137.5,987.2c-47.3-315.6-51.3-6618.8-3.9-6965.9c78.9-544.3,429.9-1013.7,946.7-1266.2l299.8-145.9l3546-11.8c3076.7-7.9,3573.6,0,3755.1,51.3c473.3,138.1,855.9,465.4,1076.8,926.9l142,295.8v3628.9v3628.9l-126.2,268.2c-240.6,512.8-749.4,899.3-1278,974.3C8176.3,2419,1766.6,2415.1,1486.5,2367.7z M8846.8,1941.7c307.7-165.7,568-449.7,686.3-745.5l90.7-224.8v-3490.8v-3490.8l-110.4-236.7c-145.9-311.6-449.7-615.4-753.4-757.3l-240.6-110.4H5028.6H1537.8L1313-7024c-295.8,118.3-579.8,378.7-745.5,686.3l-134.1,248.5l-11.8,3506.6C409.7,1283,401.8,1093.7,654.3,1480.2C808.1,1709,1029,1882.6,1313,2000.9l224.8,94.7l3530.2-11.8l3530.3-7.9L8846.8,1941.7z" fill="#2b303a"/><path d="M4160.9,1539.4C2630.4,1219.9,1423.4,64.2,1005.3-1474.2C883-1923.8,855.4-2767.9,942.2-3241.3c347.1-1842.1,1798.7-3179.2,3672.3-3380.4c1195.1-130.2,2398.2,295.8,3285.7,1159.6c1266.2,1226.7,1609.4,3116.1,859.9,4697.8C8270.9,273.2,7478.1,999,6413.1,1385.6C5746.5,1630.1,4878.8,1689.3,4160.9,1539.4z M5569-1395.3c540.4-268.2,816.5-938.8,623.2-1522.6c-98.6-295.8-469.4-666.6-765.2-765.2c-595.6-197.2-1254.3,78.9-1530.5,642.9c-149.9,307.7-153.8,757.3-11.8,1053.2C4192.4-1355.8,4941.9-1091.5,5569-1395.3z" fill="#2b303a"/></g></g>
</svg>