<?xml version="1.0" standalone="no"?>
<!DOCTYPE svg PUBLIC "-//W3C//DTD SVG 20010904//EN"
 "http://www.w3.org/TR/2001/REC-SVG-20010904/DTD/svg10.dtd">
<svg version="1.0" xmlns="http://www.w3.org/2000/svg"
 width="512.000000pt" height="512.000000pt" viewBox="0 0 512.000000 512.000000"
 preserveAspectRatio="xMidYMid meet">

<g transform="translate(0.000000,512.000000) scale(0.100000,-0.100000)"
fill="#000000" stroke="none">
<path d="M1569 5105 c-193 -36 -361 -125 -505 -269 -242 -242 -335 -574 -254
-905 49 -199 179 -400 334 -517 36 -27 65 -51 66 -54 0 -3 -14 -14 -31 -24
-49 -29 -155 -133 -208 -204 -103 -140 -164 -296 -184 -469 -37 -334 106 -662
380 -872 l43 -32 -73 -58 c-159 -127 -278 -314 -329 -517 -29 -115 -31 -332
-5 -438 73 -292 262 -525 528 -650 150 -71 237 -90 409 -90 117 0 162 4 234
22 159 40 313 123 430 233 171 160 277 366 305 594 6 53 11 274 11 538 0 246
2 447 5 447 3 0 28 -18 56 -40 248 -196 624 -252 927 -140 241 90 425 258 536
491 71 148 91 236 90 409 0 125 -4 158 -27 242 -57 210 -181 395 -354 527
l-43 32 73 58 c263 210 401 569 343 897 -67 384 -338 675 -728 781 -57 15
-155 17 -1008 19 -772 2 -959 0 -1021 -11z m831 -940 l0 -645 -372 0 c-409 0
-446 4 -564 61 -251 119 -400 392 -363 663 32 238 190 437 412 521 100 37 163
42 540 44 l347 1 0 -645z m1145 621 c182 -52 333 -176 414 -341 46 -94 64
-176 64 -290 -1 -118 -30 -222 -90 -324 -52 -88 -172 -198 -265 -244 -128 -63
-159 -67 -575 -67 l-373 0 0 646 0 646 383 -4 c322 -4 391 -7 442 -22z m-1145
-2226 l0 -640 -378 0 c-419 0 -440 2 -567 65 -165 81 -293 237 -341 416 -22
84 -22 234 0 318 50 185 180 342 351 422 118 56 138 58 553 58 l382 1 0 -640z
m1135 625 c184 -48 338 -172 423 -341 45 -89 64 -175 64 -284 0 -109 -19 -195
-64 -284 -85 -169 -239 -293 -423 -341 -88 -22 -253 -20 -345 6 -115 31 -185
74 -281 169 -131 131 -189 267 -189 450 0 182 58 319 189 450 95 94 158 133
271 167 93 27 264 31 355 8z m-1137 -1967 c-3 -363 -5 -386 -26 -448 -54 -162
-180 -309 -324 -379 -109 -54 -193 -74 -303 -74 -107 0 -176 14 -270 58 -234
108 -377 327 -378 580 -1 112 14 178 63 280 63 132 165 236 294 299 124 61
149 64 569 65 l378 1 -3 -382z"/>
</g>
</svg>
