<?xml version="1.0" standalone="no"?>
<!DOCTYPE svg PUBLIC "-//W3C//DTD SVG 20010904//EN"
 "http://www.w3.org/TR/2001/REC-SVG-20010904/DTD/svg10.dtd">
<svg version="1.0" xmlns="http://www.w3.org/2000/svg"
 width="764.000000pt" height="662.000000pt" viewBox="0 0 764.000000 662.000000"
 preserveAspectRatio="xMidYMid meet">

<g transform="translate(0.000000,662.000000) scale(0.100000,-0.100000)"
fill="#000000" stroke="none">
<path d="M5885 6596 c-57 -26 -117 -81 -142 -129 -9 -18 -18 -63 -20 -102 -4
-59 -1 -77 19 -116 l24 -46 -123 -99 c-68 -55 -131 -98 -141 -98 -9 1 -50 9
-90 18 -94 21 -290 21 -408 1 -148 -26 -319 -82 -520 -171 -5 -3 -18 21 -28
53 -33 106 -92 185 -153 202 -38 11 -95 -8 -133 -44 -68 -65 -129 -270 -130
-437 l0 -47 -102 -83 c-57 -45 -164 -142 -239 -215 l-136 -133 -49 0 c-73 0
-305 -28 -419 -51 -291 -58 -580 -169 -831 -320 -45 -27 -85 -49 -89 -49 -11
0 2 179 16 222 10 30 18 37 48 43 50 10 83 29 119 69 60 68 66 149 16 221 -14
21 -24 38 -22 39 75 49 147 109 199 163 62 66 67 69 103 65 99 -12 201 58 230
157 20 68 20 101 1 175 -9 33 -14 60 -13 60 2 1 18 14 36 29 28 22 39 26 75
21 87 -12 157 47 157 131 0 52 -17 84 -59 112 -87 59 -211 -6 -211 -111 0 -17
-11 -34 -36 -52 -32 -25 -38 -26 -57 -14 -75 49 -132 70 -189 70 -118 0 -203
-66 -226 -175 -6 -32 -13 -39 -62 -58 -149 -61 -329 -218 -387 -337 -38 -80
-47 -119 -38 -176 11 -77 91 -143 174 -144 28 0 32 -3 26 -17 -4 -10 -9 -42
-11 -70 -2 -42 -10 -62 -36 -94 -46 -57 -152 -134 -225 -164 -59 -24 -237 -55
-248 -43 -3 3 19 39 50 79 78 104 169 292 201 414 31 121 35 284 9 379 -39
145 -134 254 -286 329 -119 58 -205 84 -509 157 -135 32 -294 75 -355 95 -150
50 -304 132 -399 212 -73 60 -78 63 -71 37 60 -234 44 -444 -61 -804 -125
-429 -146 -544 -125 -669 18 -111 46 -175 107 -240 117 -127 366 -215 675
-239 l93 -7 -79 -46 c-223 -130 -355 -278 -372 -416 -6 -51 -6 -52 -57 -73
-50 -21 -50 -22 -26 -33 155 -66 280 -146 280 -178 0 -57 66 -119 127 -119 93
0 142 87 94 166 -18 30 -74 64 -105 64 -19 0 -42 34 -51 76 -14 70 40 134 160
190 61 28 215 78 221 71 1 -1 23 -49 49 -107 43 -97 78 -165 127 -246 l18 -32
-47 -28 c-205 -118 -582 -390 -830 -597 l-151 -127 -8 -87 c-14 -174 10 -521
52 -744 22 -120 70 -307 110 -430 l34 -106 358 -91 357 -91 70 75 70 74 49
-82 c26 -44 71 -113 99 -152 27 -38 45 -72 39 -74 -30 -10 -63 -47 -72 -83
-13 -49 -7 -85 24 -129 l23 -34 -25 -65 c-14 -36 -28 -70 -32 -74 -4 -5 -39 7
-77 26 -63 32 -193 88 -193 84 0 -1 -9 -81 -19 -177 l-19 -175 -54 -80 c-125
-185 -123 -355 7 -494 60 -64 129 -108 206 -132 76 -24 118 -24 197 0 100 31
165 76 247 172 28 32 43 38 208 84 97 27 177 52 177 55 0 3 -33 47 -74 96
l-74 91 96 47 c95 46 98 47 127 32 55 -29 141 -11 166 36 6 12 13 24 14 26 1
1 42 -16 91 -39 202 -94 497 -174 753 -205 149 -17 512 -20 651 -4 630 71
1144 312 1592 749 153 148 252 265 352 414 65 99 163 283 207 390 19 49 27 57
44 53 88 -21 88 -21 130 33 42 53 55 61 55 35 0 -21 41 -438 43 -441 1 -1 70
3 152 8 141 10 163 14 371 76 l220 65 -43 276 c-24 153 -49 312 -56 355 l-13
78 50 43 c28 23 72 59 97 79 46 37 46 38 68 145 28 141 41 271 41 412 l0 114
-172 171 c-95 94 -213 205 -263 246 -119 100 -334 259 -351 259 -7 0 -33 -9
-58 -20 l-45 -19 -93 43 c-51 23 -151 66 -223 96 -71 29 -133 56 -138 60 -4 3
52 19 125 35 184 39 492 125 620 173 140 53 291 132 350 182 25 22 56 61 69
86 l22 47 122 -6 c67 -4 129 -9 138 -13 10 -3 17 -17 17 -33 0 -41 44 -96 97
-122 120 -59 262 -4 279 107 14 93 -63 177 -174 191 -62 7 -114 -10 -161 -52
l-36 -33 -147 11 c-145 11 -147 11 -153 36 -17 67 -101 146 -211 197 -162 76
-359 108 -662 109 l-214 0 8 40 c4 22 10 108 13 190 l6 150 105 42 c103 42
307 96 405 109 50 6 50 6 67 -30 22 -46 87 -92 157 -112 136 -40 299 26 361
146 62 121 10 250 -125 312 -69 31 -178 31 -253 -2 -90 -39 -172 -148 -172
-228 0 -14 -8 -23 -22 -26 -13 -3 -63 -12 -113 -21 -114 -22 -233 -56 -340
-99 l-84 -34 -16 56 c-37 127 -127 245 -232 304 -29 17 -53 31 -53 33 0 4 199
167 217 178 7 4 32 -2 55 -15 53 -27 163 -30 220 -6 53 24 128 96 151 147 23
53 26 142 5 191 -55 129 -213 187 -343 126z m202 -57 c107 -52 131 -186 51
-283 -80 -98 -235 -110 -315 -24 -42 44 -56 132 -32 195 40 107 189 164 296
112z m-5619 -221 c116 -55 285 -108 517 -163 404 -94 549 -149 653 -249 96
-92 132 -187 132 -351 0 -104 -16 -190 -51 -288 -30 -81 -34 -65 -5 20 76 225
55 454 -56 587 -43 52 -188 146 -163 106 3 -6 -1 -7 -10 -3 -12 4 -13 8 -5 13
24 15 -51 38 -526 159 -325 83 -476 139 -615 227 l-36 23 -6 -162 c-3 -89 -10
-178 -16 -197 -8 -28 -9 -24 -3 25 4 33 7 128 7 210 l0 150 50 -34 c28 -19 87
-51 133 -73z m-78 -33 c7 -8 17 -15 23 -15 5 0 41 -26 80 -57 109 -91 310
-233 328 -233 5 0 36 -25 70 -55 34 -30 65 -55 69 -55 5 0 32 20 62 45 70 60
142 94 209 100 l54 4 -53 -9 c-151 -28 -279 -150 -322 -310 -7 -25 -14 -50
-15 -56 -3 -9 -22 -8 -72 3 -139 30 -352 14 -447 -35 -45 -22 -136 -112 -159
-157 -13 -26 -22 -66 -25 -117 -4 -70 -2 -82 28 -147 57 -124 223 -262 345
-286 19 -4 4 8 -40 30 -38 20 -74 41 -80 47 -5 5 15 -2 45 -17 81 -41 236 -91
358 -116 136 -27 297 -24 380 9 113 44 207 142 292 305 156 297 184 468 106
648 -20 46 -32 79 -26 73 5 -5 26 -48 45 -95 31 -75 35 -94 35 -179 0 -137
-50 -312 -141 -493 -84 -165 -163 -240 -308 -290 -81 -28 -91 -29 -211 -24
-212 8 -534 92 -627 163 -19 14 -39 22 -46 18 -6 -4 -9 -4 -5 1 4 4 -21 38
-56 75 -35 37 -76 94 -92 126 -25 51 -29 70 -29 144 0 47 4 105 9 130 4 25 8
54 8 65 0 33 19 86 28 80 5 -3 15 14 21 37 7 24 21 51 31 61 10 10 20 28 23
40 13 60 34 201 30 205 -2 3 0 13 5 23 6 10 11 82 13 161 2 79 6 149 10 156
11 16 32 15 47 -3z m2670 -105 c13 -13 20 -32 19 -52 l-2 -33 -6 35 c-6 32 -7
33 -15 12 -10 -31 -45 -62 -70 -63 -17 0 -15 -3 9 -14 27 -13 28 -14 7 -15
-30 0 -72 42 -72 73 0 13 9 36 21 51 26 33 79 36 109 6z m-360 -116 c27 -15
50 -30 50 -34 0 -19 -17 -17 -58 8 -60 35 -146 38 -189 6 -52 -39 -73 -81 -73
-148 1 -107 57 -196 155 -242 62 -30 109 -30 160 -1 60 34 88 93 82 180 -5 76
7 97 22 40 23 -82 8 -171 -36 -224 -98 -116 -308 -56 -394 113 -26 52 -36 151
-19 202 41 124 174 169 300 100z m1538 -31 c-15 -10 -38 -36 -50 -60 -12 -23
-24 -40 -26 -38 -14 13 68 115 92 115 6 0 -1 -8 -16 -17z m83 -4 l24 -20 -30
17 c-39 24 -40 24 -28 24 6 0 21 -9 34 -21z m-2998 -6 c-7 -2 -19 -2 -25 0 -7
3 -2 5 12 5 14 0 19 -2 13 -5z m1347 -13 l35 -18 -25 -10 c-14 -5 -43 -17 -64
-26 -21 -9 -63 -19 -92 -22 -44 -6 -54 -4 -54 8 0 21 38 68 64 78 36 15 99 10
136 -10z m-1283 4 c-3 -3 -12 -4 -19 -1 -8 3 -5 6 6 6 11 1 17 -2 13 -5z m63
-14 c18 -12 2 -12 -25 0 -13 6 -15 9 -5 9 8 0 22 -4 30 -9z m1370 -20 c-19
-16 -40 -30 -46 -30 -6 0 -17 -7 -24 -15 -20 -24 -181 -116 -191 -109 -5 3 -9
17 -8 32 0 15 3 21 6 15 2 -7 12 -13 21 -13 18 1 73 29 57 30 -5 0 22 15 60
34 39 19 88 46 110 60 53 34 58 32 15 -4z m-2553 -12 c-3 -7 -5 -2 -5 12 0 14
2 19 5 13 2 -7 2 -19 0 -25z m5158 -9 c201 -49 313 -142 377 -315 19 -52 22
-79 22 -234 1 -143 -3 -195 -21 -285 -28 -137 -54 -225 -61 -205 -3 8 -9 18
-14 21 -5 3 1 28 13 55 36 85 61 261 61 434 0 133 -4 186 -12 198 -4 3 -7 20
-9 37 0 8 -4 15 -8 15 -5 0 -7 -44 -6 -97 1 -54 -1 -90 -4 -80 -2 9 -8 17 -13
17 -15 0 -20 -34 -11 -66 9 -32 4 -81 -9 -99 -4 -5 -13 -41 -19 -80 -19 -110
-77 -277 -152 -438 -38 -81 -69 -152 -69 -156 0 -4 -22 -39 -49 -78 l-48 -70
77 -77 77 -76 37 96 c21 52 40 93 43 91 3 -4 -64 -184 -73 -196 -2 -2 -49 40
-106 93 -392 364 -814 573 -1329 656 -136 21 -433 45 -449 35 -6 -3 -10 -2
-10 4 0 15 224 222 352 323 63 51 165 122 224 157 60 35 129 77 154 93 25 15
86 48 135 72 327 159 654 215 900 155z m1436 -29 c135 -69 121 -249 -24 -319
-175 -84 -375 32 -328 190 39 130 219 196 352 129z m-6616 -55 c-10 -36 -20
-63 -22 -61 -2 2 4 33 13 70 10 36 20 63 22 61 3 -2 -4 -34 -13 -70z m1173 60
c109 -33 192 -137 207 -260 8 -62 -5 -167 -32 -251 l-16 -52 -97 -25 c-264
-69 -573 -222 -769 -380 l-45 -35 -50 20 c-105 41 -177 82 -235 134 -141 128
-161 289 -49 403 38 39 124 85 145 77 8 -3 12 -2 9 3 -8 13 40 22 82 16 29 -4
33 -3 17 5 -50 25 248 -5 346 -35 13 -5 18 8 28 68 25 154 109 264 239 312 50
18 157 18 220 0z m152 -10 c13 -14 21 -25 18 -25 -2 0 -15 11 -28 25 -13 14
-21 25 -18 25 2 0 15 -11 28 -25z m960 -107 c15 -31 38 -61 57 -73 41 -26 43
-42 3 -18 -24 14 -33 15 -39 5 -13 -22 -63 44 -81 109 -8 26 -6 29 13 29 17 0
28 -13 47 -52z m261 -40 c-5 -19 -13 -43 -20 -56 -13 -25 -60 -52 -90 -52 -19
0 -19 2 -4 39 8 21 36 65 61 97 45 58 46 58 53 32 4 -15 4 -42 0 -60z m1346
60 c-3 -8 -6 -5 -6 6 -1 11 2 17 5 13 3 -3 4 -12 1 -19z m270 0 c-3 -8 -6 -5
-6 6 -1 11 2 17 5 13 3 -3 4 -12 1 -19z m-2047 -8 c0 -36 48 -128 92 -176 23
-26 37 -44 30 -40 -8 5 -22 0 -35 -12 -12 -10 -35 -27 -52 -37 -22 -13 -18 -7
15 23 36 33 43 43 33 53 -11 10 -19 7 -46 -19 -37 -35 -64 -41 -69 -14 -2 12
-6 13 -11 5 -5 -7 6 -28 28 -52 53 -59 46 -75 -39 -81 -53 -4 -71 -9 -80 -24
-58 -98 -75 -103 -114 -32 -15 27 -34 52 -42 54 -12 4 -11 1 3 -15 43 -49 -4
-120 -74 -110 -22 3 -39 3 -39 1 0 -2 15 -13 33 -24 22 -14 26 -20 14 -20 -27
0 -65 44 -73 84 -18 97 78 248 222 352 68 49 169 104 190 104 8 0 14 -9 14
-20z m1767 -42 c-3 -8 -6 -5 -6 6 -1 11 2 17 5 13 3 -3 4 -12 1 -19z m290 0
c-3 -8 -6 -5 -6 6 -1 11 2 17 5 13 3 -3 4 -12 1 -19z m-4203 -22 c-3 -15 -8
-25 -11 -23 -2 3 -1 17 3 31 3 15 8 25 11 23 2 -3 1 -17 -3 -31z m3903 -48
c-3 -7 -5 -2 -5 12 0 14 2 19 5 13 2 -7 2 -19 0 -25z m-3923 -22 c-3 -15 -8
-25 -11 -23 -2 3 -1 17 3 31 3 15 8 25 11 23 2 -3 1 -17 -3 -31z m3913 -98
c-2 -13 -4 -5 -4 17 -1 22 1 32 4 23 2 -10 2 -28 0 -40z m-4006 -236 c-12 -49
-22 -107 -23 -128 l-1 -39 -4 34 c-4 33 36 236 45 227 2 -3 -5 -45 -17 -94z
m1422 -116 c-21 -47 -40 -86 -43 -86 -3 0 -21 33 -40 74 -19 40 -30 72 -25 70
6 -2 39 4 75 14 36 10 66 17 68 16 2 -1 -14 -40 -35 -88z m555 57 c-10 -2 -26
-2 -35 0 -10 3 -2 5 17 5 19 0 27 -2 18 -5z m-658 -102 l40 -82 -31 -46 c-41
-59 -112 -133 -128 -133 -7 0 -11 6 -8 13 7 19 -32 89 -45 81 -7 -4 -8 -3 -4
4 10 16 -12 54 -26 46 -7 -4 -8 -3 -4 5 4 6 -6 34 -23 62 l-31 50 37 16 c74
30 178 70 181 68 1 -1 20 -39 42 -84z m-1257 -41 c14 -1 57 -65 57 -85 0 -7
-6 -12 -12 -11 -23 3 -37 17 -32 30 3 8 1 17 -5 21 -6 3 -11 0 -12 -7 -2 -35
-17 33 -17 72 1 35 2 38 5 13 2 -18 10 -33 16 -33z m1518 17 c-10 -9 -11 -8
-5 6 3 10 9 15 12 12 3 -3 0 -11 -7 -18z m-1602 -76 c21 -157 81 -240 226
-312 44 -22 69 -37 55 -33 -14 4 -45 17 -70 29 -147 75 -207 166 -225 345 -10
93 1 71 14 -29z m1091 67 c11 -22 10 -22 -4 -4 -25 31 -19 10 15 -49 17 -30
35 -53 39 -50 5 3 12 0 16 -6 4 -8 3 -9 -4 -5 -15 9 -15 1 -1 -25 5 -11 14
-17 19 -14 5 3 14 -5 20 -17 11 -22 10 -22 -4 -4 -18 23 -21 14 -5 -15 5 -11
14 -17 18 -15 11 7 7 -32 -5 -44 -14 -14 -110 -46 -157 -53 -36 -6 -39 -4 -72
45 -19 29 -41 53 -50 54 -9 1 -14 -3 -12 -9 3 -7 10 -11 16 -9 7 1 10 -2 6 -8
-8 -14 22 -61 36 -57 7 1 14 -3 16 -10 8 -23 -161 -2 -307 37 l-44 12 24 19
c103 81 379 248 412 249 10 0 22 -10 28 -22z m1026 -20 c9 -15 -27 -41 -39
-29 -13 13 -1 41 17 41 8 0 18 -5 22 -12z m-996 -28 c6 -11 8 -20 6 -20 -3 0
-10 9 -16 20 -6 11 -8 20 -6 20 3 0 10 -9 16 -20z m-880 -118 c0 -8 -79 62
-84 74 -3 7 15 -5 39 -29 25 -23 45 -43 45 -45z m3659 73 c74 -8 137 -18 140
-20 6 -7 -112 2 -194 14 -33 5 -143 10 -245 10 -101 1 -186 4 -189 6 -11 12
367 3 488 -10z m-551 -2 c-10 -2 -28 -2 -40 0 -13 2 -5 4 17 4 22 1 32 -1 23
-4z m-138 -13 c-14 -4 -38 -8 -55 -8 -29 1 -29 1 5 8 50 11 83 11 50 0z m-125
-20 c-16 -4 -41 -8 -55 -8 -22 0 -22 1 5 8 17 4 41 8 55 8 22 0 22 -1 -5 -8z
m1008 3 c-7 -2 -19 -2 -25 0 -7 3 -2 5 12 5 14 0 19 -2 13 -5z m-305 -28 c-3
-3 -9 2 -12 12 -6 14 -5 15 5 6 7 -7 10 -15 7 -18z m359 19 c-3 -3 -12 -4 -19
-1 -8 3 -5 6 6 6 11 1 17 -2 13 -5z m-280 -11 c-3 -5 8 -8 24 -9 16 -1 35 -7
44 -14 18 -15 20 -42 3 -38 -7 1 -30 -1 -51 -6 -25 -5 -43 -3 -53 5 -17 14
-18 56 -1 62 19 8 39 8 34 0z m-156 -28 c19 -14 41 -37 50 -53 8 -15 26 -32
39 -39 20 -10 28 -8 48 8 18 14 41 19 88 19 56 0 64 -3 83 -27 14 -18 19 -21
14 -9 -5 16 -3 18 13 11 10 -5 34 -8 52 -7 17 1 53 3 80 4 26 2 53 9 61 16 15
14 44 13 39 -3 -2 -5 -10 -10 -18 -12 -45 -7 -76 -17 -82 -27 -4 -6 -28 -9
-53 -8 -28 1 -44 -2 -40 -8 3 -6 13 -10 22 -10 9 0 13 -6 9 -15 -3 -8 -1 -15
4 -15 6 0 10 5 10 11 0 7 9 9 21 6 15 -4 27 1 40 16 15 19 27 22 83 21 82 0
99 -14 66 -49 -18 -19 -34 -25 -66 -25 -23 0 -44 -5 -46 -12 -3 -8 -25 -5 -75
10 -110 34 -119 25 -12 -12 170 -60 219 -92 245 -165 16 -44 44 -77 44 -51 0
10 -46 97 -63 118 -5 6 -8 12 -6 13 31 6 40 4 55 -12 19 -21 6 -27 -15 -6 -11
9 -10 7 0 -10 8 -13 19 -23 26 -23 7 0 13 -7 13 -15 0 -17 48 -64 65 -65 6 0
-5 12 -22 26 -56 44 -41 108 28 119 64 11 159 -36 159 -78 0 -11 7 -28 16 -38
10 -11 12 -19 5 -24 -6 -3 -11 0 -11 7 0 9 -3 10 -8 2 -4 -6 -27 -21 -52 -32
-33 -15 -39 -21 -23 -21 12 -1 25 4 28 9 8 13 65 13 65 1 0 -5 -6 -12 -12 -14
-7 -3 -1 -6 14 -6 15 -1 30 -6 34 -13 5 -8 -4 -9 -32 -5 -21 3 -102 15 -179
26 -148 22 -560 66 -706 75 l-86 6 -6 -38 c-4 -20 -7 -158 -7 -307 -2 -252 0
-286 30 -498 17 -126 30 -233 27 -240 -2 -6 -9 28 -17 76 -12 77 -15 85 -31
77 -31 -17 -129 36 -129 70 0 23 20 26 39 8 10 -11 11 -8 6 12 -3 16 2 40 15
64 11 22 18 41 16 44 -3 2 -10 -7 -17 -20 -6 -12 -28 -37 -48 -54 l-35 -31 47
-98 c26 -54 46 -100 44 -102 -2 -2 -102 200 -222 449 -120 249 -222 458 -227
465 -6 7 2 26 25 56 38 50 62 124 53 161 -10 39 -54 85 -110 113 -43 23 -67
27 -161 31 -108 4 -242 -9 -274 -28 -11 -7 -6 -8 18 -3 43 8 51 -5 51 -82 0
-92 21 -111 35 -32 4 20 10 37 14 37 15 0 7 34 -11 52 -10 10 -18 23 -18 29 0
13 62 8 72 -6 12 -16 9 -66 -7 -130 -9 -32 -17 -66 -19 -74 -1 -9 -11 -30 -22
-48 -14 -25 -25 -31 -46 -30 -16 1 -28 6 -28 11 0 5 -7 3 -15 -4 -8 -6 -13
-17 -12 -23 1 -7 -6 -11 -15 -9 -10 2 -18 -2 -18 -9 0 -7 8 -9 23 -4 12 4 47
9 77 12 30 3 62 12 72 20 11 10 18 11 23 4 3 -7 24 -9 48 -6 23 3 36 2 28 -1
-25 -12 -466 -81 -471 -74 -3 4 -23 10 -44 13 -38 6 -86 40 -86 61 1 6 9 1 19
-11 18 -22 30 -26 68 -24 16 1 21 6 17 16 -5 11 -2 13 10 9 9 -3 14 -10 11
-14 -3 -4 7 -11 23 -15 25 -7 26 -8 7 -16 -14 -7 -9 -8 20 -4 22 2 41 9 43 15
2 5 15 10 28 10 29 0 31 11 5 34 -18 16 -19 16 -17 -1 0 -12 -6 -18 -21 -19
-12 -1 -29 -4 -39 -8 -9 -4 -20 -3 -23 1 -3 5 -31 27 -61 50 -30 23 -68 55
-84 72 -17 17 -35 31 -42 31 -15 0 -95 -94 -118 -137 -9 -18 -16 -54 -16 -80
0 -78 46 -129 146 -164 31 -11 63 -18 70 -15 19 7 18 2 -12 -119 l-26 -105
-35 58 c-19 31 -40 66 -46 77 -9 18 -9 19 6 6 12 -9 17 -10 17 -2 0 6 -10 15
-23 20 -15 6 -43 44 -77 101 -52 91 -53 92 -86 87 -29 -5 -34 -3 -34 14 0 10
4 19 9 19 5 0 9 19 9 43 -2 131 131 272 357 378 145 68 255 92 430 93 203 1
263 -17 370 -110 41 -36 75 -59 76 -52 0 10 2 10 6 1 2 -7 12 -13 21 -13 22 0
1 20 -24 24 -11 2 -17 7 -14 12 3 5 33 8 68 8 35 -1 60 1 57 5 -4 3 -10 6 -13
7 -38 3 -77 22 -113 54 -24 21 -54 41 -68 44 -15 3 -33 10 -41 15 -13 9 -13
12 2 27 25 25 77 20 105 -10 29 -31 33 -32 26 -6 -4 15 2 22 22 30 14 5 33 10
41 10 21 0 17 -28 -6 -42 -11 -7 -20 -17 -20 -21 0 -5 12 1 26 12 34 27 52 26
81 -1 13 -12 23 -17 23 -11 0 6 -7 16 -15 23 -29 24 -11 70 26 70 24 0 31 -14
20 -43 -8 -20 -4 -32 16 -61 15 -20 31 -36 37 -37 6 0 0 -5 -13 -10 -13 -5
-21 -12 -18 -15 3 -3 28 5 56 17 53 23 76 20 50 -7 -10 -9 -14 -26 -11 -44 6
-43 22 -37 22 9 0 33 19 68 31 57 2 -2 10 2 17 10 16 18 7 18 -71 2 -59 -12
-59 -12 -83 15 -13 16 -24 36 -24 45 0 18 58 82 75 82 6 0 27 -11 46 -25z
m-290 -2 c13 -15 11 -16 -13 -11 -20 4 -28 0 -31 -14 -5 -17 -8 -17 -26 -6
-26 16 -21 34 8 31 11 -2 21 2 21 7 0 16 26 12 41 -7z m84 -3 c0 -8 -10 -16
-22 -18 -22 -3 -32 16 -16 32 12 11 38 2 38 -14z m2888 -26 c63 -21 117 -81
117 -130 0 -52 -24 -90 -78 -121 -41 -24 -57 -28 -127 -28 -113 0 -183 39
-205 113 -34 122 137 219 293 166z m-3183 -15 c0 -5 -4 -9 -10 -9 -5 0 -10 7
-10 16 0 8 5 12 10 9 6 -3 10 -10 10 -16z m604 2 c14 -16 15 -20 2 -30 -11
-10 -17 -8 -30 10 -25 37 -2 54 28 20z m676 -11 c8 -5 11 -10 5 -10 -5 0 -17
5 -25 10 -8 5 -10 10 -5 10 6 0 17 -5 25 -10z m-2540 -15 c-6 -8 -10 -18 -7
-22 3 -4 -3 -23 -12 -42 l-18 -34 -16 23 c-16 23 -15 25 21 56 40 36 52 43 32
19z m2160 -5 c0 -5 -4 -10 -9 -10 -6 0 -13 5 -16 10 -3 6 1 10 9 10 9 0 16 -4
16 -10z m1879 -62 c14 -10 31 -29 40 -41 8 -12 -5 -4 -30 18 -25 22 -54 46
-65 53 -16 10 -15 11 6 1 14 -7 36 -20 49 -31z m-4115 -38 c26 -34 44 -65 41
-70 -12 -19 -134 -101 -181 -121 -27 -12 -51 -23 -52 -25 -5 -3 44 -76 107
-159 30 -40 35 -52 17 -35 l-27 25 11 -29 c6 -16 12 -43 14 -60 8 -55 18 -86
30 -87 6 0 -45 -27 -113 -60 -68 -32 -125 -58 -127 -56 -2 1 -15 47 -29 102
-36 139 -65 311 -72 436 l-6 106 85 11 c86 11 167 35 223 65 17 9 30 16 31 17
0 0 22 -27 48 -60z m2603 40 c3 -10 2 -11 -4 -4 -4 6 -15 14 -23 17 -11 5 -9
6 4 4 11 -1 21 -9 23 -17z m1316 5 c163 -34 236 -119 160 -187 -53 -48 -225
-86 -331 -73 -46 6 -56 11 -73 38 -23 39 -26 125 -4 167 37 71 104 86 248 55z
m-1073 -21 c0 -9 -28 -3 -46 11 -17 13 -16 14 14 4 17 -6 32 -13 32 -15z
m-1685 -14 c-3 -5 -12 -10 -20 -10 -8 0 -17 5 -20 10 -4 6 5 10 20 10 15 0 24
-4 20 -10z m1625 0 c0 -5 -5 -10 -11 -10 -5 0 -7 5 -4 10 3 6 8 10 11 10 2 0
4 -4 4 -10z m-210 -25 c-16 -20 -34 -19 -51 3 -13 15 -12 16 4 3 16 -12 20
-12 34 2 20 20 31 14 13 -8z m-1416 -15 c-11 -45 -60 -145 -87 -174 -34 -36
-34 -23 0 76 17 51 29 74 35 66 5 -9 8 -9 8 -1 0 6 3 19 7 29 4 12 3 15 -5 10
-7 -4 -12 -3 -12 2 0 14 6 17 34 17 22 0 24 -3 20 -25z m4368 20 c45 -13 88
-62 88 -99 0 -66 -78 -110 -162 -92 -102 23 -134 140 -50 185 32 18 73 20 124
6z m-2557 -38 c-3 -3 -11 0 -18 7 -9 10 -8 11 6 5 10 -3 15 -9 12 -12z m616
-29 c-11 -21 -20 -35 -21 -31 0 12 33 78 38 74 2 -2 -6 -21 -17 -43z m-1167
22 c-4 -8 -10 -15 -15 -15 -5 0 -9 7 -9 15 0 8 7 15 15 15 9 0 12 -6 9 -15z
m46 -5 c0 -12 -28 -25 -36 -17 -9 9 6 27 22 27 8 0 14 -5 14 -10z m1717 -37
c-3 -10 -5 -2 -5 17 0 19 2 27 5 18 2 -10 2 -26 0 -35z m-5712 17 c13 -6 15
-9 5 -9 -8 0 -22 4 -30 9 -18 12 -2 12 25 0z m4155 0 c0 -12 -28 -25 -36 -17
-9 9 6 27 22 27 8 0 14 -5 14 -10z m-130 -14 c0 -8 -4 -17 -8 -20 -13 -8 -35
11 -28 23 10 16 36 14 36 -3z m-3955 -6 c13 -5 14 -9 5 -9 -8 0 -24 4 -35 9
-13 5 -14 9 -5 9 8 0 24 -4 35 -9z m1575 -30 l25 -19 -23 -17 c-13 -8 -56 -42
-97 -75 -41 -32 -77 -59 -81 -59 -7 0 -43 42 -44 51 0 3 26 22 58 42 31 20 73
49 92 66 19 17 37 30 40 30 3 0 16 -8 30 -19z m2745 10 c3 -5 1 -10 -4 -10 -6
0 -11 5 -11 10 0 6 2 10 4 10 3 0 8 -4 11 -10z m1765 6 c0 -2 -8 -10 -17 -17
-16 -13 -17 -12 -4 4 13 16 21 21 21 13z m-459 -29 c-10 -9 -11 -8 -5 6 3 10
9 15 12 12 3 -3 0 -11 -7 -18z m-11 -20 c0 -2 -12 -14 -27 -28 l-28 -24 24 28
c23 25 31 32 31 24z m303 -24 c-13 -2 -35 -2 -50 0 -16 2 -5 4 22 4 28 0 40
-2 28 -4z m-3903 -61 c28 -27 50 -54 50 -59 0 -19 -27 -22 -49 -7 -17 12 -19
19 -11 35 7 13 7 19 0 19 -5 0 -10 -4 -10 -10 0 -19 -35 -9 -52 15 -19 26 -15
55 8 55 8 0 37 -22 64 -48z m2375 18 c22 -42 6 -70 -38 -70 -42 0 -58 16 -47
44 5 11 11 29 14 39 9 29 53 21 71 -13z m30 10 c3 -5 1 -10 -4 -10 -6 0 -11 5
-11 10 0 6 2 10 4 10 3 0 8 -4 11 -10z m-3823 -103 c91 -127 219 -267 327
-361 50 -43 91 -80 91 -82 0 -1 -35 -21 -77 -44 -43 -24 -85 -49 -95 -57 -15
-13 -19 -10 -44 34 -15 26 -36 64 -47 83 -11 19 -46 94 -77 165 -66 148 -48
139 -190 99 -161 -47 -288 -122 -325 -194 -12 -23 -22 -28 -72 -33 -32 -3 -67
-9 -77 -13 -18 -7 -19 -4 -12 37 11 69 45 128 116 200 78 79 190 156 314 215
50 24 93 44 96 43 3 0 35 -41 72 -92z m3043 27 c346 -31 839 -109 1105 -174
19 -4 46 -11 60 -14 l25 -5 -15 -233 -16 -233 -80 -166 -80 -165 -64 70 -64
71 57 -54 56 -55 36 80 c20 43 54 114 75 157 21 42 38 77 37 77 -1 0 -81 14
-177 31 -206 36 -464 78 -467 75 -1 -1 142 -152 317 -335 l319 -333 -5 -47
c-2 -25 -11 -145 -19 -266 -10 -135 -20 -226 -28 -236 -6 -10 -76 -99 -155
-198 l-143 -181 -42 0 c-50 0 -805 37 -924 46 l-83 6 0 171 c0 95 -7 293 -16
440 -9 147 -15 269 -13 271 2 2 176 1 387 -3 210 -3 382 -3 382 1 0 4 -71 69
-158 145 -87 76 -241 210 -342 298 -101 88 -195 169 -208 179 l-25 20 16 -25
c11 -17 24 -84 37 -200 11 -95 23 -182 26 -191 3 -10 37 -36 76 -59 38 -23 79
-50 91 -62 11 -11 46 -26 76 -33 l56 -12 -50 0 c-45 -1 -61 6 -164 72 l-115
72 -27 205 c-16 112 -32 227 -37 254 -5 28 -7 166 -4 308 l4 258 57 -6 c31 -3
133 -12 226 -21z m728 -31 c-7 -2 -21 -2 -30 0 -10 3 -4 5 12 5 17 0 24 -2 18
-5z m-1348 -607 l257 -539 12 -201 c6 -111 10 -208 8 -218 -2 -9 -14 -18 -25
-21 -57 -13 -346 -89 -375 -98 -27 -9 -32 -15 -27 -32 38 -134 83 -257 95
-261 8 -2 1 -4 -16 -5 l-31 -1 -47 158 c-49 160 -90 267 -258 677 -94 227
-133 333 -127 339 2 2 81 18 174 35 94 18 180 34 193 37 19 4 22 9 16 27 -3
12 -8 23 -9 25 -1 1 -94 -16 -206 -38 -112 -22 -212 -40 -221 -40 -10 0 -18
-4 -18 -9 0 -5 20 -66 44 -136 l43 -128 -59 -236 c-32 -130 -72 -287 -89 -349
-30 -112 -30 -115 -13 -150 103 -217 134 -286 130 -289 -7 -7 -46 17 -46 27 0
8 -64 150 -125 277 -1 2 -259 -66 -440 -117 -62 -17 -104 -24 -111 -18 -9 6
-6 37 12 116 13 59 77 357 144 662 203 932 218 1001 222 1004 1 2 138 25 303
52 l300 49 16 -30 c9 -16 132 -273 274 -569z m-1067 554 c26 -16 44 -30 41
-30 -9 0 -99 51 -99 56 0 8 11 3 58 -26z m2679 4 c-3 -3 -12 -4 -19 -1 -8 3
-5 6 6 6 11 1 17 -2 13 -5z m-3112 -64 c10 -11 16 -20 13 -20 -3 0 -13 9 -23
20 -10 11 -16 20 -13 20 3 0 13 -9 23 -20z m3440 -10 c10 -11 16 -20 13 -20
-3 0 -13 9 -23 20 -10 11 -16 20 -13 20 3 0 13 -9 23 -20z m-3285 -10 c-8 -5
-19 -10 -25 -10 -5 0 -3 5 5 10 8 5 20 10 25 10 6 0 3 -5 -5 -10z m-95 -38
c-7 -8 -35 7 -35 18 0 6 7 6 20 -2 10 -7 17 -14 15 -16z m45 18 c-8 -5 -19
-10 -25 -10 -5 0 -3 5 5 10 8 5 20 10 25 10 6 0 3 -5 -5 -10z m247 -243 c51
-87 93 -164 93 -172 0 -25 -17 -25 -29 1 -6 14 -41 73 -78 132 -37 58 -74 121
-83 140 -17 34 -17 32 -23 -124 -11 -252 -7 -621 7 -841 l14 -202 -48 -218
c-38 -176 -45 -221 -35 -233 7 -8 85 -100 174 -204 89 -103 160 -190 158 -193
-3 -2 -79 -23 -169 -47 l-164 -43 -35 31 c-19 17 -114 97 -211 178 l-175 148
-6 47 c-3 27 -16 173 -28 326 l-23 278 -25 -6 c-14 -4 -27 -8 -29 -10 -2 -1 6
-103 17 -226 11 -123 23 -270 27 -327 l7 -103 58 -52 c31 -29 123 -106 203
-172 79 -66 145 -123 145 -126 1 -3 -73 -25 -163 -48 l-164 -42 -239 146
c-131 79 -241 146 -245 147 -16 7 -84 376 -117 638 -28 222 -42 427 -44 650
l-2 194 125 76 c69 42 166 99 216 127 l92 50 6 -101 c3 -55 9 -165 12 -243 l7
-142 26 13 26 14 -6 138 c-4 77 -7 188 -8 247 l-1 108 146 71 c81 38 217 98
302 133 l156 63 20 -31 c11 -18 61 -103 113 -190z m3204 149 c318 -116 699
-280 699 -301 0 -19 -78 -427 -83 -431 -2 -2 -104 36 -226 85 l-222 89 3 -31
c3 -32 5 -33 215 -117 116 -47 214 -87 216 -90 5 -5 -49 -299 -55 -306 -2 -1
-80 19 -173 45 -249 70 -225 66 -225 32 0 -20 6 -32 18 -35 20 -7 314 -85 350
-93 18 -4 22 -11 18 -27 -2 -11 -19 -100 -37 -196 -18 -96 -37 -180 -43 -186
-8 -9 -103 6 -376 58 -201 38 -368 72 -372 76 -10 11 41 834 77 1225 21 233
26 267 34 267 4 0 86 -29 182 -64z m-5003 -204 c2 -12 -1 -22 -6 -22 -14 0
-43 36 -35 44 14 13 38 1 41 -22z m5962 -171 c122 -94 297 -251 429 -384 l114
-115 -6 -169 c-7 -210 -42 -423 -70 -423 -7 0 -59 27 -117 59 -58 33 -106 58
-107 57 -2 -2 27 -193 98 -639 28 -175 49 -321 46 -323 -4 -5 -367 -114 -378
-114 -4 0 -7 10 -7 23 2 101 -26 1095 -36 1292 -7 138 -11 251 -10 253 1 2 70
-42 154 -98 83 -55 157 -103 164 -106 8 -3 11 5 8 28 -4 30 -19 43 -194 161
l-191 127 7 -132 c17 -357 27 -761 20 -768 -5 -5 -64 2 -134 16 -214 42 -229
43 -227 24 0 -9 -11 -36 -26 -61 -15 -24 -67 -114 -116 -199 l-88 -155 104
-23 105 -24 29 28 c15 15 26 31 23 35 -2 4 6 15 18 23 12 9 19 16 15 16 -10 0
131 172 202 248 27 28 55 52 62 52 9 0 8 -5 -3 -17 -8 -10 -87 -104 -176 -209
l-161 -190 -113 23 c-62 12 -119 24 -125 25 -8 2 37 90 113 223 96 168 129
235 140 285 18 82 244 1268 244 1282 0 10 56 -28 190 -131z m-5802 7 c-3 -7
-12 -14 -21 -16 -12 -2 -15 1 -11 12 7 19 38 22 32 4z m2552 -107 c0 -12 -15
-16 -125 -36 -49 -9 -98 -19 -107 -21 -10 -3 -18 -1 -18 4 0 5 42 19 93 31
156 35 157 35 157 22z m-2197 -298 c6 -213 19 -391 42 -582 l6 -46 -141 -84
c-128 -77 -182 -115 -136 -98 23 9 336 -159 336 -180 0 -11 -23 -2 -82 30 -46
24 -130 68 -188 97 -96 49 -350 208 -349 220 0 3 52 38 115 79 103 66 114 76
114 103 0 16 -4 28 -8 26 -23 -9 -312 -201 -312 -207 0 -4 71 -56 158 -116 86
-59 158 -109 160 -111 3 -2 82 -461 82 -476 0 -13 57 -37 227 -96 141 -49 235
-86 252 -98 5 -4 -220 -249 -232 -251 -7 -2 -142 31 -302 72 -285 74 -319 83
-341 84 -18 2 -99 287 -138 486 -33 169 -47 319 -53 555 l-6 245 114 95 c161
134 354 283 494 380 66 46 131 92 145 102 14 9 28 18 31 18 3 0 9 -111 12
-247z m1908 231 c-18 -8 -36 -12 -39 -9 -10 10 21 25 48 24 23 -1 22 -2 -9
-15z m3471 -356 c-7 -7 -12 -8 -12 -2 0 14 12 26 19 19 2 -3 -1 -11 -7 -17z
m-5312 -652 c11 -71 23 -141 26 -155 4 -19 3 -22 -4 -11 -9 13 -52 258 -52
292 0 35 11 -12 30 -126z m4117 36 c-13 -21 -79 -107 -147 -191 -67 -84 -120
-154 -118 -155 4 -4 395 -78 588 -111 115 -20 147 -22 156 -12 15 14 118 189
184 308 40 74 63 100 76 86 8 -8 -237 -427 -249 -427 -14 -1 -770 143 -776
146 -2 2 63 87 144 191 82 103 150 196 153 207 3 12 7 15 10 8 2 -7 -7 -30
-21 -50z m1712 36 c-2 -2 -17 -14 -34 -28 l-30 -25 24 28 c14 15 29 27 34 27
6 0 8 -1 6 -2z m-69 -51 c0 -2 -10 -12 -22 -23 l-23 -19 19 23 c18 21 26 27
26 19z m-4095 -61 c9 -28 21 -56 26 -62 10 -12 -30 -24 -81 -24 -35 0 -61 -10
-55 -20 3 -4 -14 -2 -38 5 -69 21 -92 32 -107 50 -12 15 -12 18 3 26 9 6 17
15 17 22 0 15 132 55 182 54 35 0 37 -2 53 -51z m-386 -225 c132 -150 165
-192 124 -160 -17 13 -17 13 0 -7 20 -24 51 -28 42 -5 -13 33 -37 202 -31 217
6 15 19 16 113 10 107 -6 238 -25 230 -32 -2 -3 -35 0 -73 5 -38 5 -113 13
-168 17 l-98 7 7 -54 c3 -30 15 -91 26 -137 23 -100 22 -92 4 -92 -13 0 -334
357 -343 381 -2 5 3 9 11 9 8 0 79 -72 156 -159z m1371 86 c0 -21 -9 -25 -96
-46 -57 -14 -99 -20 -105 -14 -9 9 53 25 149 39 33 4 42 10 42 25 0 10 2 19 5
19 3 0 5 -10 5 -23z m-1133 7 c-3 -3 -12 -4 -19 -1 -8 3 -5 6 6 6 11 1 17 -2
13 -5z m86 -11 c-13 -2 -35 -2 -50 0 -16 2 -5 4 22 4 28 0 40 -2 28 -4z m762
-84 c121 -45 205 -168 189 -276 -3 -24 -9 -43 -11 -43 -3 0 -42 22 -87 49
-177 106 -371 199 -447 216 -16 4 -29 10 -29 15 0 9 85 47 137 60 59 15 180 5
248 -21z m-591 -50 c227 -45 484 -153 681 -285 203 -135 465 -348 465 -376 0
-23 1 -24 -81 18 -87 43 -243 96 -366 123 -51 12 -97 21 -103 21 -15 0 43
-109 91 -171 73 -92 157 -185 218 -238 l59 -50 118 19 c113 19 229 53 239 71
3 4 -27 40 -66 80 -70 71 -70 72 -58 103 14 33 142 261 173 309 14 21 15 26 4
22 -8 -3 -51 4 -94 16 -66 18 -110 22 -267 25 -197 3 -260 10 -111 13 94 2
124 12 124 40 0 48 66 52 96 5 19 -28 53 -48 100 -58 29 -7 30 -6 26 22 -3 23
2 34 25 51 53 42 133 7 133 -59 0 -25 25 -49 37 -36 2 2 -1 34 -8 70 -10 60
-9 69 6 86 31 34 52 34 108 -4 65 -43 112 -106 103 -139 -7 -29 -43 -47 -99
-48 -23 -1 -32 -4 -19 -6 12 -2 19 -9 16 -15 -4 -7 0 -7 12 0 11 6 32 8 47 5
21 -4 27 -1 27 11 0 11 5 15 13 10 6 -4 9 -4 5 1 -4 4 -4 13 1 19 15 18 25 80
12 72 -6 -4 -14 1 -18 11 -3 10 -15 30 -25 45 -23 34 -23 45 3 58 16 9 30 8
59 -4 23 -9 54 -13 79 -10 26 3 41 1 41 -6 0 -6 -4 -9 -9 -6 -19 12 -44 -22
-43 -58 2 -49 5 -53 49 -59 74 -11 103 -19 97 -28 -7 -12 7 -11 26 1 13 9 13
10 0 11 -20 2 58 18 90 18 20 1 22 -1 10 -9 -22 -14 6 -13 32 1 32 17 142 -16
169 -49 26 -34 6 -42 -27 -11 -36 34 -117 37 -169 7 -117 -68 -114 -216 5
-275 39 -19 42 -22 19 -23 -28 0 -84 25 -95 42 -4 7 -9 6 -14 -3 -7 -10 -11
-10 -24 0 -9 8 -16 18 -16 23 0 5 -11 24 -25 42 -14 18 -25 36 -25 39 0 4 -8
20 -18 36 l-18 30 0 -40 c1 -27 7 -45 19 -53 19 -15 24 -31 5 -19 -7 4 -5 -5
4 -19 11 -17 14 -29 8 -33 -14 -9 -13 -152 1 -161 7 -4 20 4 31 17 17 20 19
21 13 4 -4 -11 -11 -33 -17 -50 -5 -16 -14 -38 -19 -48 -7 -14 -4 -23 17 -40
20 -18 27 -34 30 -72 3 -48 3 -49 -5 -11 -8 40 -41 76 -68 76 -27 0 -94 -41
-102 -64 -5 -12 -6 -38 -2 -57 10 -49 47 -60 106 -31 25 12 48 22 52 22 14 0
-41 -49 -68 -60 -24 -11 -66 -67 -56 -76 2 -2 19 12 37 31 48 50 60 46 60 -18
0 -42 -5 -58 -21 -73 -20 -18 -21 -18 -50 16 -15 19 -29 30 -29 23 0 -6 5 -15
10 -18 17 -10 11 -35 -15 -60 -13 -14 -19 -25 -13 -25 9 0 9 -3 0 -12 -7 -7
-12 -16 -12 -22 0 -5 6 -1 14 9 8 11 20 16 29 12 9 -3 18 -1 21 6 3 9 5 9 5 0
1 -14 -24 -41 -55 -59 -15 -10 -17 -14 -6 -25 10 -11 12 -11 12 1 0 7 3 10 7
7 3 -4 12 -2 20 5 22 18 27 1 14 -42 -15 -51 -81 -101 -106 -80 -12 10 -15 10
-15 -2 0 -50 -86 -100 -234 -137 -72 -18 -91 -19 -97 -9 -6 9 -9 9 -9 1 0 -13
-35 -9 -54 6 -9 7 -24 7 -47 0 -56 -17 -139 -27 -145 -17 -4 5 -13 0 -21 -11
-17 -25 -65 -28 -84 -5 -11 14 -10 18 6 31 20 16 20 16 0 8 -73 -27 -73 -27
-101 -8 -20 13 -29 14 -32 5 -5 -17 -41 -15 -48 3 -4 8 -9 13 -14 10 -4 -2
-16 6 -27 19 -18 21 -19 24 -4 33 12 8 9 9 -15 6 -18 -3 -35 0 -38 6 -4 6 -16
11 -27 11 -24 0 -24 9 -1 27 15 12 13 12 -10 2 -22 -10 -44 -9 -98 0 -77 14
-105 38 -98 83 4 27 65 71 90 64 11 -2 15 0 12 6 -4 5 -17 8 -30 5 -17 -3 -25
1 -31 17 -11 34 -11 60 -1 80 7 13 6 21 -3 27 -19 12 -39 11 -39 -2 0 -5 5 -7
10 -4 6 3 10 1 10 -4 0 -13 -3 -13 -24 -5 -9 3 -16 13 -16 21 0 8 -4 11 -10 8
-5 -3 -10 1 -10 9 0 9 6 16 13 16 8 0 7 4 -3 10 -8 5 -11 10 -7 10 5 0 5 5 1
12 -5 8 -10 6 -16 -8 -7 -18 -8 -18 -7 1 2 43 -3 42 -56 -11 -31 -30 -60 -54
-65 -54 -32 0 -149 209 -181 325 -17 63 -31 90 -68 133 l-46 54 -9 -26 -10
-26 -11 27 c-10 23 -11 18 -7 -37 3 -56 0 -70 -20 -99 -40 -59 -70 -75 -144
-75 -36 0 -69 5 -72 10 -4 6 -22 16 -40 23 -63 26 -99 101 -80 165 13 41 61
89 103 104 23 8 25 11 9 11 -27 1 -100 -52 -109 -78 -7 -24 -25 -28 -25 -6 0
20 -35 76 -43 69 -3 -4 0 -16 8 -28 21 -30 18 -59 -8 -84 -30 -29 -86 -45
-103 -31 -9 7 -25 7 -53 -2 -34 -10 -47 -9 -86 5 -25 10 -45 23 -45 29 0 7 -9
18 -20 25 -11 7 -20 17 -20 23 0 14 26 36 58 49 12 5 22 16 22 24 0 8 5 27 12
41 11 25 15 26 56 20 41 -6 45 -5 77 32 36 40 42 53 25 53 -5 0 -10 -6 -10
-14 0 -39 -91 -55 -116 -21 -29 39 -18 62 36 80 66 22 95 17 95 -15 0 -15 6
-25 15 -25 8 0 18 -7 22 -15 4 -9 7 2 7 25 1 22 5 45 9 51 4 6 52 26 107 44
108 37 128 47 119 61 -3 5 -3 9 0 9 3 0 19 -26 35 -59 48 -95 165 -262 251
-360 46 -52 80 -99 80 -111 0 -64 80 -240 154 -339 l25 -34 61 62 61 62 48
-35 c50 -37 67 -41 134 -30 27 5 37 12 37 25 0 12 10 21 28 25 15 3 41 10 57
15 l30 9 -31 -4 c-17 -3 -65 -8 -107 -12 -75 -7 -76 -6 -119 27 -24 18 -44 33
-45 34 -2 1 11 26 27 57 l30 55 -133 110 c-215 179 -248 205 -254 199 -3 -3
-6 -28 -7 -56 -1 -27 -3 -50 -6 -50 -8 1 -126 152 -176 226 -94 140 -185 356
-208 499 l-7 41 92 -8 c51 -5 137 -17 193 -29z m1385 -131 c13 -33 -10 -53
-56 -50 -63 5 -87 54 -31 65 58 11 79 7 87 -15z m-143 -1 c1 -1 5 -13 8 -27 6
-20 5 -22 -4 -10 -9 12 -10 6 -5 -26 6 -39 5 -42 -26 -54 -27 -12 -36 -11 -58
1 -21 13 -26 22 -25 54 2 50 34 79 78 71 16 -4 30 -7 32 -9z m488 -16 c4 -5
-3 -7 -14 -4 -23 6 -26 13 -6 13 8 0 17 -4 20 -9z m-1189 -11 c3 -5 2 -10 -4
-10 -5 0 -13 5 -16 10 -3 6 -2 10 4 10 5 0 13 -4 16 -10z m444 -34 c15 -18 10
-69 -7 -72 -7 -1 -8 0 -2 3 11 5 13 33 4 57 -9 22 -41 20 -54 -4 -6 -11 -15
-20 -21 -20 -5 0 -2 11 7 25 18 28 55 33 73 11z m-2979 -55 c0 -21 -16 -2 -25
29 -7 24 -7 24 9 5 8 -11 16 -27 16 -34z m3898 18 c-3 -8 -7 -3 -11 10 -4 17
-3 21 5 13 5 -5 8 -16 6 -23z m-42 -10 c3 -6 -1 -18 -10 -27 -14 -15 -18 -14
-42 9 -26 23 -26 23 -15 2 10 -19 9 -23 -4 -23 -21 0 -31 30 -14 41 20 12 77
11 85 -2z m-970 -14 c-4 -11 3 -15 27 -16 l32 -1 -30 -7 c-16 -4 -34 -5 -38
-1 -8 7 1 40 10 40 3 0 3 -7 -1 -15z m979 -45 c3 -5 2 -10 -4 -10 -5 0 -13 5
-16 10 -3 6 -2 10 4 10 5 0 13 -4 16 -10z m-639 -92 l52 -13 -57 -99 c-31 -55
-59 -100 -62 -100 -3 -1 -52 39 -108 88 -56 50 -115 99 -131 110 -16 12 -30
25 -30 30 0 13 274 -1 336 -16z m-1954 -105 c53 -61 4 -173 -74 -173 -33 0
-48 24 -48 75 0 49 14 71 58 94 46 25 46 25 64 4z m4095 -15 c-3 -8 -6 -5 -6
6 -1 11 2 17 5 13 3 -3 4 -12 1 -19z m-4231 -17 c-8 -12 -46 -21 -46 -11 0 5
10 11 23 13 12 2 23 5 25 6 2 0 1 -3 -2 -8z m4454 -21 c0 -6 -23 -9 -52 -9
l-53 2 40 7 c60 11 65 11 65 0z m-4480 -14 c0 -3 -4 -8 -10 -11 -5 -3 -10 -1
-10 4 0 6 5 11 10 11 6 0 10 -2 10 -4z m4333 -3 c-13 -2 -35 -2 -50 0 -16 2
-5 4 22 4 28 0 40 -2 28 -4z m-4517 -218 c4 -22 3 -37 0 -33 -13 11 -56 229
-49 241 7 11 31 -95 49 -208z m194 106 c17 -60 12 -116 -10 -136 -17 -16 -25
-17 -59 -7 -33 10 -43 20 -65 66 -18 36 -26 69 -26 103 0 53 8 63 51 63 10 0
19 4 19 9 0 23 81 -65 90 -98z m1633 84 c195 -54 364 -133 477 -223 l51 -41
-42 -11 c-70 -19 -151 -30 -224 -30 l-71 0 -69 71 c-47 49 -59 64 -35 48 19
-13 36 -27 38 -31 5 -11 34 3 79 40 29 23 48 32 61 28 42 -14 133 -69 151 -92
10 -13 27 -24 37 -24 31 0 -95 89 -191 135 -81 39 -186 76 -300 104 -22 6 -46
20 -53 31 -15 25 -19 25 91 -5z m1697 -10 c-11 -13 -8 -15 21 -16 30 -1 28 -2
-13 -9 -53 -9 -126 -55 -153 -97 -10 -15 -24 -46 -31 -68 -10 -31 -13 -34 -13
-15 -1 42 19 100 40 113 10 6 19 17 19 23 0 15 65 64 98 74 40 12 46 11 32 -5z
m-3693 -77 c-2 -13 -4 -3 -4 22 0 25 2 35 4 23 2 -13 2 -33 0 -45z m3433 47
c0 -2 -10 -9 -22 -15 -22 -11 -22 -10 -4 4 21 17 26 19 26 11z m-1997 -141 c9
-81 35 -164 81 -253 l32 -63 36 53 c59 90 72 120 56 130 -7 5 -21 9 -30 9 -10
0 -18 5 -18 12 0 7 -28 38 -62 70 -56 53 -52 50 44 -24 l107 -83 -29 -49 c-33
-59 -103 -156 -111 -156 -13 0 -89 150 -109 215 -28 91 -39 220 -19 213 9 -3
17 -29 22 -74z m-1375 -16 c12 -21 19 -38 17 -38 -7 0 -45 63 -45 74 0 12 1
10 28 -36z m3202 7 c0 -31 -46 -67 -79 -63 -20 2 -27 9 -29 31 -4 35 19 45 53
23 31 -20 48 -12 42 20 -2 13 0 21 4 18 5 -3 9 -16 9 -29z m-2710 -28 l25 -11
-29 -4 c-20 -2 -35 3 -50 18 l-21 22 25 -7 c14 -4 36 -12 50 -18z m264 -38
c20 -50 13 -77 -21 -85 -20 -5 -31 -2 -45 16 -22 27 -23 42 -3 80 22 43 49 39
69 -11z m-194 21 c12 -8 9 -10 -13 -10 -16 0 -26 4 -22 10 8 12 16 12 35 0z
m80 -5 c13 -16 7 -45 -10 -45 -16 0 -51 40 -45 50 9 15 41 12 55 -5z m2590
-30 c-7 -8 -9 -15 -4 -15 14 0 -15 -24 -32 -26 -12 -2 -8 6 12 27 29 30 46 40
24 14z m67 -1 c-3 -3 -12 -4 -19 -1 -8 3 -5 6 6 6 11 1 17 -2 13 -5z m49 -22
c34 -22 45 -95 18 -128 -14 -18 -15 -18 -7 6 27 88 -20 135 -97 95 -33 -17
-70 -65 -70 -91 0 -26 30 -54 59 -54 20 0 22 -3 13 -12 -10 -10 -21 -9 -55 2
-36 13 -42 20 -45 45 -3 42 36 106 78 127 36 19 87 23 106 10z m-2101 -57 c28
-55 28 -174 1 -204 -22 -24 -58 -27 -75 -7 -7 8 -14 31 -17 53 -3 21 -14 59
-25 86 -16 38 -17 51 -8 70 22 41 32 48 68 45 31 -3 39 -9 56 -43z m-964 1
c-9 -11 -9 -15 1 -19 7 -3 -4 -6 -25 -6 -23 -1 -36 3 -32 9 3 6 15 10 25 10
10 0 22 5 25 10 3 6 9 10 12 10 3 0 0 -6 -6 -14z m287 -13 c73 -37 113 -83
103 -119 -4 -15 -13 -29 -19 -30 -7 -1 -8 0 -2 3 11 5 13 33 4 58 -6 14 -160
95 -182 95 -5 0 -22 -10 -38 -22 -25 -19 -27 -20 -14 -3 15 19 14 19 -10 4
-34 -22 -35 -39 -6 -72 15 -17 22 -35 19 -48 -5 -17 -8 -14 -23 18 -17 38 -71
93 -92 93 -6 0 -8 3 -5 6 4 4 18 -1 32 -10 27 -18 45 -14 45 9 0 21 49 44 95
45 24 0 61 -11 93 -27z m248 16 c10 -17 -23 -46 -37 -32 -7 7 -9 19 -6 27 7
18 33 21 43 5z m179 -45 c118 -42 113 -35 132 -201 5 -49 4 -52 -25 -67 -36
-19 -68 -21 -78 -5 -4 8 -9 8 -17 0 -20 -20 -45 -11 -113 42 -38 28 -81 60
-96 70 -21 13 -28 25 -28 50 1 38 13 61 60 110 40 42 51 42 165 1z m2042 9 c6
-17 -39 -43 -80 -46 -28 -3 -34 0 -29 12 10 29 43 49 74 48 17 -1 33 -7 35
-14z m-2870 -18 c-20 -14 -37 -31 -37 -37 0 -6 -3 -8 -7 -4 -9 9 54 66 71 66
6 0 -6 -11 -27 -25z m-394 -7 c6 -22 -8 -58 -23 -58 -43 0 -57 54 -17 70 32
13 34 12 40 -12z m158 -45 c13 -16 12 -17 -3 -4 -10 7 -18 15 -18 17 0 8 8 3
21 -13z m319 -7 c6 -8 10 -25 8 -38 -2 -17 -11 -24 -39 -28 -34 -6 -35 -5 -37
26 -3 46 41 71 68 40z m-181 -223 c12 -10 3 -28 -64 -115 -43 -57 -81 -107
-85 -111 -4 -5 -52 24 -106 63 -54 39 -104 75 -111 79 -11 6 -8 23 14 84 l28
77 43 0 c49 0 97 27 107 61 6 18 15 13 83 -52 43 -40 83 -79 91 -86z m657 120
c-3 -3 25 -20 62 -39 119 -60 202 -150 202 -219 0 -37 -25 -80 -63 -109 -31
-23 -40 -25 -123 -23 -50 1 -98 8 -109 15 -18 11 -16 12 15 7 19 -4 44 -9 55
-12 17 -5 18 -4 7 10 -12 14 -8 15 33 11 38 -5 53 -1 85 20 132 87 -47 293
-258 296 -82 0 -148 -57 -138 -119 4 -25 2 -31 -4 -21 -18 27 -12 105 10 133
29 36 99 61 159 55 43 -4 47 -3 35 9 -22 22 -17 25 11 7 14 -9 24 -19 21 -21z
m29 17 c27 -29 15 -32 -18 -4 -16 14 -22 24 -14 24 8 0 22 -9 32 -20z m2795
-4 c0 -2 -28 -27 -62 -56 l-63 -52 60 56 c60 55 65 60 65 52z m-3495 -26 c10
-11 16 -20 13 -20 -3 0 -13 9 -23 20 -10 11 -16 20 -13 20 3 0 13 -9 23 -20z
m1230 -70 c9 -27 -25 -84 -52 -88 -43 -6 -72 60 -38 88 8 7 28 10 44 8 17 -2
28 -1 25 4 -3 4 -1 8 5 8 5 0 13 -9 16 -20z m214 -6 c16 -3 39 -16 51 -29 19
-21 22 -32 18 -80 -3 -33 -11 -63 -21 -73 -16 -15 -16 -14 -7 18 13 46 13 83
-1 114 -9 19 -22 27 -55 32 -58 8 -98 -2 -134 -36 -31 -29 -40 -27 -17 3 27
37 81 68 109 62 16 -3 41 -7 57 -11z m1912 -18 c-20 -24 -223 -162 -326 -222
-268 -155 -674 -290 -926 -309 -43 -3 -25 2 55 15 376 64 725 201 1030 405 61
41 125 86 141 99 34 28 43 33 26 12z m-3707 -168 c117 -79 232 -177 351 -299
125 -129 171 -185 158 -192 -5 -2 -69 -21 -144 -42 l-136 -38 -189 149 c-394
310 -354 275 -349 314 2 19 9 85 16 146 l11 112 110 -55 c61 -29 138 -72 172
-95z m1467 106 c14 -17 -4 -44 -29 -44 -13 0 -12 3 4 14 18 14 18 15 -6 24
-29 11 -40 7 -40 -14 0 -8 -4 -12 -10 -9 -17 11 -11 32 12 42 26 12 53 7 69
-13z m-929 -86 c62 -45 115 -83 117 -85 2 -2 -4 -12 -15 -24 -13 -14 -19 -35
-18 -63 l1 -42 -97 -46 -97 -45 -88 82 c-64 61 -85 86 -79 97 15 24 156 208
160 208 2 0 54 -37 116 -82z m2823 62 c7 0 16 5 18 10 3 6 4 5 3 -2 -1 -7 -12
-14 -24 -16 -16 -3 -22 2 -21 15 0 10 3 13 6 6 2 -7 11 -13 18 -13z m-1802
-118 c27 -28 35 -52 18 -52 -5 0 -14 7 -21 15 -7 8 -9 15 -4 15 5 0 -2 8 -15
17 -21 14 -31 15 -83 4 -32 -6 -65 -14 -73 -18 -10 -3 -15 1 -15 11 0 23 35
35 106 35 53 1 63 -2 87 -27z m358 -23 c8 -17 8 -24 -3 -34 -15 -14 -97 -29
-82 -15 5 4 23 10 39 12 22 2 31 9 33 26 4 27 5 27 -54 2 -61 -27 -83 -19 -24
9 57 26 76 26 91 0z m-1161 -63 c0 -29 -24 -40 -50 -23 -25 15 -25 23 -2 36
31 18 52 13 52 -13z m860 11 c0 -2 -10 -12 -21 -23 -22 -19 -22 -19 -8 4 12
19 29 30 29 19z m340 -52 c-3 -5 -43 -10 -90 -11 -47 0 -94 -4 -105 -8 l-20
-8 20 13 c37 24 206 36 195 14z m-2204 -105 c-23 -26 -46 -77 -57 -129 -27
-129 68 -246 201 -246 63 1 145 39 186 88 l24 28 45 -32 c25 -18 45 -37 45
-44 0 -23 -117 -125 -175 -151 -83 -38 -186 -39 -265 -3 -113 53 -202 162
-215 265 -11 82 28 192 103 291 l24 32 49 -41 c41 -37 46 -44 35 -58z m2289
79 c11 -17 2 -18 -19 -3 -17 12 -17 14 -4 14 9 0 20 -5 23 -11z m328 -41 c6
-8 7 -23 4 -32 -7 -18 -37 -22 -37 -5 0 5 4 8 9 5 5 -3 12 1 15 10 3 8 2 12
-4 9 -5 -3 -21 -3 -36 1 l-27 7 24 13 c28 15 39 14 52 -8z m372 3 c0 -21 -41
-33 -55 -16 -7 8 -9 19 -5 25 10 16 60 8 60 -9z m-2795 -174 c0 -4 -9 -2 -20
5 -15 10 -22 10 -32 0 -16 -16 -43 -15 -57 2 -10 11 -7 17 11 30 20 14 18 21
-4 17 -4 0 -5 6 -2 14 5 12 17 7 55 -23 26 -20 48 -40 49 -45z m2423 26 c-13
-2 -35 -2 -50 0 -16 2 -5 4 22 4 28 0 40 -2 28 -4z m-155 -10 c-38 -2 -98 -2
-135 0 -38 2 -7 3 67 3 74 0 105 -1 68 -3z"/>
<path d="M6136 6417 c6 -35 3 -41 -45 -88 -37 -38 -56 -50 -71 -46 -11 3 -18
2 -15 -2 2 -5 -14 -14 -36 -21 -34 -12 -49 -11 -97 1 -36 9 -56 19 -54 28 1 7
-2 10 -8 6 -26 -16 51 -91 105 -101 80 -15 187 31 223 94 26 47 29 119 7 148
-14 18 -15 16 -9 -19z"/>
<path d="M6064 6328 l-19 -23 23 19 c21 18 27 26 19 26 -2 0 -12 -10 -23 -22z"/>
<path d="M5848 6283 c7 -3 16 -2 19 1 4 3 -2 6 -13 5 -11 0 -14 -3 -6 -6z"/>
<path d="M860 5926 c0 -2 8 -10 18 -17 15 -13 16 -12 3 4 -13 16 -21 21 -21
13z"/>
<path d="M5001 5819 c-133 -22 -282 -132 -337 -248 -36 -75 -44 -186 -19 -262
25 -75 117 -167 200 -199 86 -33 245 -34 327 -1 187 74 301 222 301 391 0 88
-30 155 -99 220 -97 92 -219 124 -373 99z m245 -50 c79 -30 154 -105 179 -178
53 -162 -38 -337 -222 -428 -76 -37 -79 -38 -192 -38 -100 0 -123 3 -166 23
-60 27 -117 80 -153 142 -23 39 -27 56 -27 125 0 71 4 89 33 147 53 107 178
202 302 228 66 13 179 4 246 -21z"/>
<path d="M4858 5556 c-80 -29 -116 -68 -124 -133 -13 -104 120 -171 261 -132
54 15 121 83 130 132 20 105 -132 181 -267 133z m102 -6 c0 -5 -6 -10 -14 -10
-8 0 -18 5 -21 10 -3 6 3 10 14 10 12 0 21 -4 21 -10z m-29 -20 c39 -21 13
-61 -41 -62 -17 -1 -39 7 -48 16 -16 16 -16 18 7 37 26 21 53 24 82 9z"/>
<path d="M5727 5745 c9 -19 18 -33 21 -31 4 5 -26 66 -33 66 -3 0 3 -16 12
-35z"/>
<path d="M5395 4560 c-4 -6 -11 -7 -17 -4 -7 4 -8 2 -4 -5 6 -9 11 -9 22 0 14
11 18 19 10 19 -3 0 -8 -5 -11 -10z"/>
<path d="M6874 5902 c3 -5 0 -13 -6 -15 -9 -4 -10 -6 -1 -6 17 -1 25 16 12 25
-7 4 -9 3 -5 -4z"/>
<path d="M6900 5794 c-19 -19 -34 -39 -33 -44 2 -5 -3 -7 -10 -4 -7 2 -22 -4
-34 -15 -11 -11 -24 -17 -29 -13 -4 4 -4 2 0 -5 4 -8 -5 -18 -25 -28 -26 -14
-36 -14 -60 -5 -17 7 -46 10 -67 7 -27 -5 -33 -4 -22 4 12 9 10 10 -8 6 -12
-3 -20 -1 -16 4 3 5 1 9 -4 9 -23 0 -52 43 -52 77 0 27 -3 34 -11 26 -10 -10
-9 -42 3 -107 3 -21 59 -82 71 -78 4 1 7 -1 7 -5 0 -13 81 -14 145 -2 33 6 78
22 100 36 l40 26 -20 -24 -20 -24 28 24 c15 14 27 30 27 38 0 7 4 13 9 13 5 0
7 10 4 23 -3 13 -1 17 4 10 5 -6 8 9 9 38 0 27 0 49 0 48 -1 -1 -17 -16 -36
-35z"/>
<path d="M1268 5697 c-55 -46 -64 -107 -22 -156 38 -46 84 -43 135 8 49 48 53
93 13 140 -33 39 -85 42 -126 8z m28 -52 c8 -20 -16 -49 -29 -36 -11 11 0 51
14 51 5 0 12 -7 15 -15z m66 -57 c-15 -15 -26 -4 -18 18 5 13 9 15 18 6 9 -9
9 -15 0 -24z"/>
<path d="M518 5573 c6 -2 18 -2 25 0 6 3 1 5 -13 5 -14 0 -19 -2 -12 -5z"/>
<path d="M596 5375 c-66 -35 -76 -98 -25 -146 30 -28 37 -30 101 -27 60 2 72
5 89 26 23 30 24 42 3 84 -31 65 -110 95 -168 63z m18 -76 c-8 -14 -34 -11
-34 4 0 8 3 17 7 20 9 9 34 -13 27 -24z m86 -18 c0 -6 -4 -13 -10 -16 -5 -3
-10 1 -10 9 0 9 5 16 10 16 6 0 10 -4 10 -9z"/>
<path d="M2106 5694 c-3 -8 -6 -35 -6 -58 0 -35 -6 -48 -35 -76 -19 -19 -35
-37 -35 -40 0 -3 16 -12 35 -19 27 -9 41 -24 60 -62 14 -27 29 -49 33 -49 5 0
19 22 33 49 26 53 43 61 132 61 47 0 48 16 2 60 -31 30 -35 39 -35 87 0 59 -6
63 -60 34 -35 -19 -35 -19 -76 5 -37 22 -42 23 -48 8z m165 -65 c-2 -34 2 -47
25 -70 15 -16 26 -31 23 -33 -2 -2 -29 -6 -59 -8 -53 -3 -55 -4 -79 -47 l-24
-44 -19 37 c-11 22 -32 43 -49 50 l-29 12 30 29 c24 23 30 37 30 72 0 24 2 43
5 43 4 0 19 -7 35 -15 27 -14 33 -14 67 3 21 10 40 17 43 15 2 -2 3 -22 1 -44z"/>
<path d="M2154 5588 l-19 -23 23 19 c12 11 22 21 22 23 0 8 -8 2 -26 -19z"/>
<path d="M2315 5649 c-11 -17 1 -21 15 -4 8 9 8 15 2 15 -6 0 -14 -5 -17 -11z"/>
<path d="M925 5060 c-8 -13 0 -23 20 -26 19 -3 19 10 1 25 -10 9 -16 9 -21 1z"/>
<path d="M943 5017 c3 -7 9 -11 15 -10 5 1 9 -5 8 -14 0 -8 7 -17 17 -18 21
-4 21 4 2 29 -16 22 -49 31 -42 13z"/>
<path d="M3972 4983 c7 -9 14 -11 16 -5 2 6 11 8 20 5 9 -3 14 -3 10 1 -3 4
-18 9 -32 10 -22 3 -24 1 -14 -11z"/>
<path d="M3917 4883 c-10 -17 8 -40 26 -34 17 6 17 8 -1 25 -11 9 -22 14 -25
9z"/>
<path d="M3976 4845 c4 -9 18 -15 38 -14 21 1 24 3 11 6 -11 3 -24 9 -29 14
-15 14 -26 11 -20 -6z"/>
<path d="M4260 4810 c0 -5 5 -10 11 -10 5 0 7 5 4 10 -3 6 -8 10 -11 10 -2 0
-4 -4 -4 -10z"/>
<path d="M2756 4787 c3 -10 9 -15 12 -12 3 3 0 11 -7 18 -10 9 -11 8 -5 -6z"/>
<path d="M3953 4780 c-32 -13 -34 -51 -5 -84 23 -25 123 -71 198 -90 73 -19
197 -22 237 -7 36 14 34 49 -5 70 -25 15 -28 14 -52 -12 -24 -26 -56 -36 -56
-18 0 5 11 18 25 29 14 11 25 22 25 26 0 9 -34 -7 -46 -22 -8 -11 -20 -13 -50
-6 -21 4 -46 8 -54 8 -8 1 -22 5 -30 11 -8 5 -19 10 -24 10 -5 0 -17 15 -27
33 l-19 32 38 0 c28 1 33 3 21 10 -24 14 -151 22 -176 10z m187 -110 c0 -5 -7
-7 -15 -4 -8 4 -15 8 -15 10 0 2 7 4 15 4 8 0 15 -4 15 -10z m215 -50 c-3 -5
-12 -10 -18 -10 -7 0 -6 4 3 10 19 12 23 12 15 0z"/>
<path d="M3460 4706 c0 -14 5 -26 10 -26 6 0 10 9 10 19 0 11 -4 23 -10 26 -6
4 -10 -5 -10 -19z"/>
<path d="M4244 4699 c-19 -22 -19 -22 4 -8 12 8 22 17 22 21 0 12 -6 9 -26
-13z"/>
<path d="M4581 4691 c-8 -5 6 -11 35 -15 69 -9 90 -8 77 5 -13 13 -95 20 -112
10z"/>
<path d="M2566 4622 c73 -64 90 -77 108 -79 14 -3 12 2 -10 18 -16 13 -44 36
-61 53 -18 16 -41 31 -50 32 -13 2 -9 -5 13 -24z"/>
<path d="M4710 4616 c0 -8 5 -18 10 -21 6 -3 10 3 10 14 0 12 -4 21 -10 21 -5
0 -10 -6 -10 -14z"/>
<path d="M4620 4550 c8 -5 20 -10 25 -10 6 0 3 5 -5 10 -8 5 -19 10 -25 10 -5
0 -3 -5 5 -10z"/>
<path d="M3628 4383 c7 -3 16 -2 19 1 4 3 -2 6 -13 5 -11 0 -14 -3 -6 -6z"/>
<path d="M2447 4104 c14 -24 27 -44 29 -44 2 0 4 12 4 28 0 19 -8 32 -29 43
l-28 16 24 -43z"/>
<path d="M3755 4060 c3 -5 8 -10 11 -10 2 0 4 5 4 10 0 6 -5 10 -11 10 -5 0
-7 -4 -4 -10z"/>
<path d="M6295 4911 c-90 -37 -58 -142 44 -145 71 -1 124 64 92 114 -8 12 -13
12 -30 -4 -29 -26 -65 -18 -69 17 -4 29 -6 30 -37 18z"/>
<path d="M1966 4765 c4 -8 10 -12 15 -9 11 6 2 24 -11 24 -5 0 -7 -7 -4 -15z"/>
<path d="M5974 4747 c-16 -43 -200 -116 -261 -104 -13 2 -23 0 -23 -6 0 -13
158 -4 222 13 76 20 138 98 85 108 -9 2 -20 -3 -23 -11z"/>
<path d="M7481 4782 c20 -31 3 -71 -36 -88 -47 -19 -68 -18 -99 7 -41 32 -33
-3 9 -40 31 -27 43 -31 91 -31 48 0 59 4 85 29 38 38 37 65 -5 107 -37 37 -64
47 -45 16z m24 -82 c-10 -11 -22 -20 -28 -20 -5 0 1 9 14 20 31 25 37 25 14 0z"/>
<path d="M4820 4595 c0 -18 19 -40 26 -32 4 4 0 15 -9 24 -9 10 -17 13 -17 8z"/>
<path d="M3894 2738 c3 -13 6 -66 7 -118 1 -59 4 -84 8 -65 l7 30 17 -32 c10
-18 22 -32 28 -30 7 1 14 -5 16 -13 4 -13 3 -13 -6 0 -9 12 -11 8 -9 -17 1
-22 8 -33 18 -34 8 0 26 -2 40 -4 14 -2 84 -6 155 -10 120 -5 275 -13 591 -31
l121 -7 137 172 c75 94 136 173 136 176 0 3 -286 5 -636 5 l-636 0 6 -22z"/>
<path d="M3718 2913 c7 -3 16 -2 19 1 4 3 -2 6 -13 5 -11 0 -14 -3 -6 -6z"/>
<path d="M3650 2900 c-20 -6 -21 -8 -5 -8 11 0 29 3 40 8 25 11 -1 11 -35 0z"/>
<path d="M3570 2880 c-20 -6 -21 -8 -5 -8 11 0 29 3 40 8 25 11 -1 11 -35 0z"/>
<path d="M3470 2858 c-19 -5 -52 -14 -74 -19 -21 -6 -36 -12 -33 -15 5 -5 168
34 176 42 7 7 -32 3 -69 -8z"/>
<path d="M2050 2530 c-180 -62 -230 -82 -230 -91 0 -5 4 -9 8 -9 13 0 108 -76
198 -157 43 -40 103 -90 132 -112 l53 -39 67 22 c37 13 91 29 120 35 52 13 73
28 55 40 -5 3 -43 45 -85 93 -94 106 -183 198 -173 178 4 -8 17 -25 28 -37 11
-13 17 -23 13 -23 -4 0 -2 -10 5 -21 16 -31 -2 -39 -91 -39 -94 0 -134 10
-189 44 l-43 27 44 27 c44 28 145 72 164 72 5 0 19 7 30 15 26 20 24 19 -106
-25z"/>
<path d="M1505 2339 c-156 -60 -183 -72 -140 -63 28 5 275 101 284 110 11 11
-25 -1 -144 -47z"/>
<path d="M1569 2331 c-64 -26 -128 -51 -142 -55 -15 -3 -27 -10 -27 -14 0 -6
176 -119 354 -226 32 -19 32 -19 154 9 66 15 127 32 134 37 10 6 -1 22 -42 59
-99 90 -287 239 -301 239 -8 0 -66 -22 -130 -49z"/>
<path d="M695 1962 l-170 -117 45 -6 c25 -4 152 -34 282 -68 131 -33 246 -61
256 -61 11 0 59 45 120 113 l101 112 -31 13 c-26 11 -376 117 -418 127 -8 2
-91 -49 -185 -113z"/>
<path d="M4395 2000 c3 -5 8 -10 11 -10 2 0 4 5 4 10 0 6 -5 10 -11 10 -5 0
-7 -4 -4 -10z"/>
<path d="M2751 1802 c-17 -11 -54 -19 -115 -23 l-91 -6 78 -1 c76 -2 137 13
151 37 9 14 6 13 -23 -7z"/>
<path d="M2360 1595 c7 -9 15 -13 17 -11 7 7 -7 26 -19 26 -6 0 -6 -6 2 -15z"/>
<path d="M3824 1408 l-19 -23 23 19 c21 18 27 26 19 26 -2 0 -12 -10 -23 -22z"/>
<path d="M3770 1330 c-9 -6 -10 -10 -3 -10 6 0 15 5 18 10 8 12 4 12 -15 0z"/>
<path d="M3720 1310 c-8 -5 -10 -10 -5 -10 6 0 17 5 25 10 8 5 11 10 5 10 -5
0 -17 -5 -25 -10z"/>
<path d="M3588 1213 c7 -3 16 -2 19 1 4 3 -2 6 -13 5 -11 0 -14 -3 -6 -6z"/>
<path d="M4230 1016 c0 -2 8 -10 18 -17 15 -13 16 -12 3 4 -13 16 -21 21 -21
13z"/>
<path d="M3966 981 c-4 -5 3 -7 14 -4 23 6 26 13 6 13 -8 0 -17 -4 -20 -9z"/>
<path d="M4262 960 c0 -14 2 -19 5 -12 2 6 2 18 0 25 -3 6 -5 1 -5 -13z"/>
<path d="M3913 948 c-15 -20 -25 -38 -20 -38 3 0 12 11 21 25 17 26 16 35 -1
13z"/>
<path d="M4570 936 c0 -2 8 -10 18 -17 15 -13 16 -12 3 4 -13 16 -21 21 -21
13z"/>
<path d="M3850 799 c0 -7 3 -9 7 -6 3 4 11 3 17 -2 17 -13 55 -20 61 -11 3 4
-7 11 -23 14 -15 4 -35 9 -44 12 -11 3 -18 0 -18 -7z"/>
<path d="M4010 790 c-30 -4 -50 -8 -45 -9 6 -1 1 -6 -10 -10 -18 -7 -17 -8 7
-13 16 -3 26 -1 25 6 -1 5 17 13 40 16 24 4 46 9 49 13 4 4 3 6 -2 5 -5 -1
-34 -4 -64 -8z"/>
<path d="M3906 1961 c-3 -4 42 -11 101 -14 58 -4 112 -12 119 -18 11 -9 8 -21
-17 -66 -17 -30 -29 -57 -26 -59 2 -3 23 28 46 67 23 40 40 73 39 75 -2 1 -38
7 -81 13 -94 13 -174 14 -181 2z"/>
<path d="M4008 1503 c6 -2 18 -2 25 0 6 3 1 5 -13 5 -14 0 -19 -2 -12 -5z"/>
<path d="M2926 1457 c3 -10 9 -15 12 -12 3 3 0 11 -7 18 -10 9 -11 8 -5 -6z"/>
<path d="M2937 1339 c4 -13 8 -18 11 -10 2 7 -1 18 -6 23 -8 8 -9 4 -5 -13z"/>
<path d="M2610 1373 c-25 -9 -50 -35 -49 -52 0 -11 4 -9 11 7 7 13 17 21 25
18 8 -3 11 -1 8 4 -10 17 76 11 132 -9 29 -10 50 -14 47 -10 -5 9 -129 49
-148 48 -6 0 -18 -3 -26 -6z"/>
<path d="M2993 1099 c-5 -5 -20 -11 -32 -12 -18 -1 -19 -3 -7 -15 18 -18 41
-10 56 17 11 22 1 28 -17 10z"/>
<path d="M1196 1062 c-3 -6 -11 -44 -16 -84 -5 -40 -12 -95 -16 -122 -10 -70
12 -52 26 22 6 31 15 83 22 115 7 40 8 61 1 68 -7 7 -13 7 -17 1z"/>
<path d="M1633 763 c4 -3 1 -13 -6 -22 -11 -14 -10 -14 6 -2 11 9 17 10 17 2
0 -6 -38 -48 -85 -93 -47 -45 -85 -85 -85 -90 0 -20 33 -20 49 0 9 11 33 34
54 51 21 16 56 46 79 66 l40 37 -28 29 c-15 16 -32 29 -38 29 -5 0 -6 -3 -3
-7z"/>
<path d="M1569 683 c-13 -16 -12 -17 4 -4 16 13 21 21 13 21 -2 0 -10 -8 -17
-17z"/>
<path d="M1734 673 c4 -8 -20 -31 -70 -65 -43 -29 -89 -63 -103 -74 l-26 -22
25 -21 c14 -11 29 -20 33 -21 5 0 20 -13 34 -30 29 -35 49 -37 123 -10 30 11
74 28 98 36 23 9 42 20 42 26 0 12 -108 145 -140 173 -13 11 -20 15 -16 8z"/>
<path d="M1119 697 c-24 -38 -47 -88 -35 -77 8 9 76 112 76 116 0 15 -19 -3
-41 -39z"/>
<path d="M1540 375 c-10 -18 -10 -29 -3 -36 18 -18 4 -43 -37 -68 -22 -14 -38
-26 -36 -29 12 -12 140 77 150 105 6 15 -29 52 -50 53 -6 0 -17 -11 -24 -25z"/>
<path d="M1110 347 c0 -2 15 -16 33 -33 l32 -29 -29 33 c-28 30 -36 37 -36 29z"/>
</g>
</svg>
